<?xml version="1.0" encoding="UTF-8" standalone="no"?>
<!-- Created with Inkscape (http://www.inkscape.org/) -->

<svg
   xmlns:osb="http://www.openswatchbook.org/uri/2009/osb"
   xmlns:dc="http://purl.org/dc/elements/1.1/"
   xmlns:cc="http://creativecommons.org/ns#"
   xmlns:rdf="http://www.w3.org/1999/02/22-rdf-syntax-ns#"
   xmlns:svg="http://www.w3.org/2000/svg"
   xmlns="http://www.w3.org/2000/svg"
   xmlns:sodipodi="http://sodipodi.sourceforge.net/DTD/sodipodi-0.dtd"
   xmlns:inkscape="http://www.inkscape.org/namespaces/inkscape"
   width="128.5119mm"
   height="128.5119mm"
   viewBox="0 0 128.5119 128.5119"
   version="1.1"
   id="svg8"
   inkscape:version="0.92.4 (5da689c313, 2019-01-14)"
   sodipodi:docname="moon.svg">
  <defs
     id="defs2">
    <linearGradient
       id="linearGradient4538"
       osb:paint="solid">
      <stop
         style="stop-color:#545736;stop-opacity:1;"
         offset="0"
         id="stop4536" />
    </linearGradient>
  </defs>
  <sodipodi:namedview
     id="base"
     pagecolor="#ffffff"
     bordercolor="#666666"
     borderopacity="1.0"
     inkscape:pageopacity="0.0"
     inkscape:pageshadow="2"
     inkscape:zoom="0.7"
     inkscape:cx="182.93931"
     inkscape:cy="258.62076"
     inkscape:document-units="mm"
     inkscape:current-layer="layer1"
     showgrid="false"
     inkscape:window-width="1366"
     inkscape:window-height="705"
     inkscape:window-x="-4"
     inkscape:window-y="-4"
     inkscape:window-maximized="1" />
  <metadata
     id="metadata5">
    <rdf:RDF>
      <cc:Work
         rdf:about="">
        <dc:format>image/svg+xml</dc:format>
        <dc:type
           rdf:resource="http://purl.org/dc/dcmitype/StillImage" />
        <dc:title></dc:title>
      </cc:Work>
    </rdf:RDF>
  </metadata>
  <g
     inkscape:label="Layer 1"
     inkscape:groupmode="layer"
     id="layer1"
     transform="translate(-37.797623,-82.309525)">
    <circle
       style="opacity:1;fill:#f2f1e3;fill-opacity:1;stroke:none;stroke-width:0.26458332;stroke-opacity:1"
       id="path4572"
       cx="102.05357"
       cy="146.56548"
       r="64.255951" />
    <path
       style="fill:#e3e4dc;fill-opacity:1;stroke:none;stroke-width:0.26458332px;stroke-linecap:butt;stroke-linejoin:miter;stroke-opacity:1"
       d="m 56.661139,127.01657 c -0.257339,0.79684 -0.937926,-0.19921 -1.336347,0 -0.225382,0.11269 -0.295486,0.45486 -0.53454,0.53454 -0.327218,0.10907 -0.734788,-0.0836 -1.069078,0 -2.700388,0.6751 0.193019,-0.0965 -1.069078,0.53454 -0.07968,0.0398 -0.178178,0 -0.267269,0 -0.08909,0 -0.187584,-0.0398 -0.267269,0 -0.112691,0.0563 -0.162438,0.19738 -0.267271,0.26727 -0.165754,0.1105 -0.393674,0.1264 -0.534538,0.26727 -0.140864,0.14086 -0.126407,0.39367 -0.267269,0.53454 -0.063,0.063 -0.204274,-0.063 -0.267271,0 -0.06299,0.063 0.063,0.20427 0,0.26727 -0.06299,0.063 -0.204272,-0.063 -0.267269,0 -0.063,0.063 0.03984,0.18758 0,0.26727 -0.330266,0.66053 -0.267269,-0.0923 -0.267269,0.53454 0,0.62679 0.063,-0.126 -0.267269,0.53453 -0.03514,0.0703 0,0.92932 0,1.06908 0,0.1859 -0.04833,1.2397 0,1.33635 0.05634,0.11269 0.210923,0.15458 0.267269,0.26727 0.05298,0.10597 -0.05464,0.74717 0,0.80181 0.063,0.063 0.204274,-0.063 0.267269,0 0.063,0.063 -0.03984,0.18758 0,0.26727 0.05635,0.11269 0.210923,0.15458 0.267269,0.26727 0.03984,0.0797 0,0.17818 0,0.26727 0,0.0891 0,0.17818 0,0.26726 0,0.53455 0,1.06908 0,1.60362 0,0.0982 0.01074,1.05833 0,1.06908 -0.06299,0.063 -0.204272,-0.063 -0.267269,0 -0.063,0.063 0.03984,0.18759 0,0.26727 -0.05635,0.11269 -0.210923,0.15458 -0.267269,0.26727 -0.03984,0.0797 0.063,0.20427 0,0.26727 -0.133636,0.13363 -0.668173,-0.13364 -0.801809,0 -0.063,0.063 0.063,0.20427 0,0.26727 -0.063,0.063 -0.204274,-0.063 -0.267269,0 -0.063,0.063 0,0.17818 0,0.26727 0,0.53454 0,1.06908 0,1.60362 0,0.71272 0,1.42543 0,2.13815 0,0.12037 -0.04067,0.72047 0,0.80181 0.112691,0.22538 0.421849,0.30916 0.534538,0.53454 0.03984,0.0797 -0.063,0.20427 0,0.26727 0.063,0.063 0.187587,-0.0398 0.267271,0 0.112689,0.0563 0.178178,0.17818 0.267269,0.26727 0.3244,0.3244 0.59218,0.68258 1.069078,0.80181 0.17286,0.0432 0.375171,-0.0797 0.534538,0 0.338074,0.16903 0.463738,0.63277 0.801809,0.80181 0.09665,0.0483 1.150451,0 1.336347,0 0.08909,0 0.178181,0 0.267271,0 0.08909,0 0.204272,0.063 0.267269,0 0.125992,-0.126 -0.05635,-0.36551 0,-0.53454 0.645314,-1.93595 -0.07705,0.42138 0.534538,-0.80181 0.03984,-0.0797 -0.03984,-0.18759 0,-0.26727 0.05635,-0.11269 0.210926,-0.15458 0.267271,-0.26727 0.03984,-0.0797 -0.03984,-0.18759 0,-0.26727 0.05635,-0.11269 0.210924,-0.15458 0.267269,-0.26727 0.08399,-0.16799 -0.08399,-0.90109 0,-1.06908 0.05635,-0.11269 0.210923,-0.15458 0.267269,-0.26727 0.03984,-0.0797 -0.063,-0.20427 0,-0.26727 0.063,-0.063 0.204274,0.063 0.267269,0 0.063,-0.063 -0.03984,-0.18758 0,-0.26727 0.05635,-0.11269 0.210926,-0.15458 0.267271,-0.26727 0.05299,-0.10597 -0.05464,-0.74717 0,-0.8018 0.063,-0.063 0.204272,0.063 0.267269,0 0.125992,-0.126 -0.07968,-0.37518 0,-0.53454 0.112692,-0.22538 0.421849,-0.30916 0.534538,-0.53454 0.05298,-0.10597 -0.05464,-0.74717 0,-0.80181 0.063,-0.063 0.204274,0.063 0.267271,0 0.063,-0.063 -0.063,-0.20428 0,-0.26727 0.140862,-0.14086 0.345552,-0.20427 0.534538,-0.26727 0.169037,-0.0564 0.408549,0.12599 0.53454,0 0.063,-0.063 -0.063,-0.20427 0,-0.26727 0.05464,-0.0546 0.695839,0.053 0.80181,0 0.112688,-0.0563 0.154577,-0.21092 0.267269,-0.26727 0.239053,-0.11953 0.562755,0.11953 0.801809,0 0.07968,-0.0398 -0.03984,-0.18758 0,-0.26727 0.05634,-0.11269 0.210923,-0.15458 0.267269,-0.26727 0.03984,-0.0797 -0.03984,-0.18758 0,-0.26727 0.556154,-1.11231 -0.01844,0.28572 0.534537,-0.26727 0.063,-0.063 0,-0.17818 0,-0.26727 0,-0.0891 0,-0.17818 0,-0.26727 0,-0.44545 0,-0.8909 0,-1.33635 0,-0.17817 -0.05635,-0.3655 0,-0.53453 0.03984,-0.11953 0.227428,-0.14775 0.267272,-0.26727 0.05068,-0.15204 0,-1.08463 0,-1.33635 0,-0.8909 0,-1.7818 0,-2.6727 0,-0.44544 0,-0.89089 0,-1.33634 0,-0.0891 0,-0.17818 0,-0.26727 0,-0.0891 0.03984,-0.18759 0,-0.26727 -0.112692,-0.22539 -0.421849,-0.30916 -0.534541,-0.53454 -0.03984,-0.0797 0.03984,-0.18759 0,-0.26727 -0.05635,-0.11269 -0.210923,-0.15458 -0.267268,-0.26727 -0.03984,-0.0797 0.06299,-0.20427 0,-0.26727 -0.125992,-0.12599 -0.408549,0.12599 -0.534541,0 -0.06299,-0.063 0.063,-0.20427 0,-0.26727 -0.06299,-0.063 -0.178178,0 -0.267269,0 -0.08909,0 -0.178178,0 -0.267268,0 -0.979991,0 -1.959978,0 -2.939966,0 z"
       id="path4597"
       inkscape:connector-curvature="0" />
    <path
       style="fill:#e3e4dc;fill-opacity:1;stroke:none;stroke-width:0.26458332px;stroke-linecap:butt;stroke-linejoin:miter;stroke-opacity:1"
       d="m 105.03692,98.953265 c -0.44545,-0.26726 -0.87171,-0.56948 -1.33634,-0.8018 -0.0966,-0.0483 -1.15045,0 -1.33635,0 -0.8909,0 -1.7818,0 -2.672698,0 -0.178178,0 -0.356359,0 -0.534537,0 -0.178181,0 -0.375172,-0.0797 -0.534541,0 -0.07968,0.0398 0.063,0.20427 0,0.26727 -0.06299,0.063 -0.178178,0 -0.267269,0 -0.08909,0 -0.178181,0 -0.267268,0 -0.712719,0 -1.425438,0 -2.138157,0 -0.09105,0 -0.92443,0.0482 -1.069078,0 -0.913913,-0.30464 -0.19889,-0.22169 -1.06908,-0.80181 -0.07413,-0.0494 -0.187585,0.0398 -0.267269,0 -0.190352,-0.0952 -0.344186,-0.439366 -0.534538,-0.534542 -0.07968,-0.03984 -0.187587,0.03984 -0.267271,0 -0.320723,-0.160362 -0.481084,-0.641446 -0.801807,-0.801807 -0.07968,-0.03984 -0.187587,0.03984 -0.267271,0 -0.112689,-0.05635 -0.154578,-0.210926 -0.267269,-0.267271 -0.159369,-0.07968 -0.408546,0.125994 -0.534538,0 -0.063,-0.063 0.063,-0.204272 0,-0.267269 -0.125992,-0.125992 -0.408548,0.125992 -0.53454,0 -0.063,-0.063 0.03984,-0.187585 0,-0.267269 -0.05635,-0.112691 -0.154578,-0.210923 -0.267269,-0.267269 -0.0599,-0.02995 -1.005568,0 -1.069078,0 -1.3544,0 0.318738,-0.07968 -1.069078,0.267269 -0.364059,0.09101 -1.280279,-0.107781 -1.603619,0 -0.119525,0.03984 -0.14774,0.227428 -0.267269,0.267269 -0.169037,0.05635 -0.375171,-0.07968 -0.534537,0 -0.07969,0.03984 0.06299,0.204274 0,0.267269 -0.07326,0.07326 -1.148416,-0.06264 -1.33635,0 -0.188986,0.063 -0.345551,0.204274 -0.534537,0.267271 -0.169037,0.05635 -0.365504,-0.05635 -0.534541,0 -0.178178,0.08909 -0.356359,0.178178 -0.534538,0.267269 0,0.08909 0.063,0.204274 0,0.267269 -0.063,0.063 -0.182753,-0.02817 -0.267268,0 -0.18899,0.063 -0.368787,0.156768 -0.534541,0.267269 -0.10483,0.06989 -0.178178,0.178181 -0.267269,0.267272 -0.178181,0.0891 -0.368786,0.15676 -0.53454,0.26727 -0.10483,0.0699 -0.154577,0.21092 -0.267269,0.26727 -0.07968,0.0398 -0.187584,-0.0398 -0.267269,0 -0.112691,0.0563 -0.15458,0.21092 -0.267268,0.26727 -0.07927,0.0396 -1.345108,0 -1.603619,0 -0.8909,0 -1.781797,0 -2.672696,0 -0.251725,0 -1.184307,0.0507 -1.336347,0 -0.119526,-0.0399 -0.162439,-0.19738 -0.267269,-0.26727 -0.165754,-0.1105 -0.345551,-0.20427 -0.53454,-0.26727 -0.167752,-0.0559 -0.853917,0 -1.069078,0 -0.08909,0 -0.178179,0 -0.267269,0 -0.08909,0 -0.204275,0.063 -0.267269,0 -0.063,-0.063 0.06299,-0.20428 0,-0.26727 -0.063,-0.063 -0.178181,0 -0.267269,0 -0.08909,0 -0.204274,-0.063 -0.267272,0 -0.125991,0.12599 0.07968,0.37517 0,0.53454 -0.05634,0.11269 -0.210923,0.15458 -0.267268,0.26727 -0.03984,0.0797 0.03984,0.18758 0,0.26727 -0.05635,0.11269 -0.178179,0.17818 -0.267269,0.26727 -0.178181,0.17818 -0.332952,0.38335 -0.534541,0.53454 -0.159369,0.11952 -0.424034,0.10151 -0.534537,0.26727 -0.09884,0.14825 0.07968,0.37516 0,0.534525 -0.03984,0.0797 -0.187585,-0.03979 -0.267269,0 -0.112691,0.0563 -0.210926,0.15458 -0.267272,0.26727 0,0.71272 0.08909,-0.0891 -0.267268,0.26727 -0.063,0.063 0.063,0.20428 0,0.26727 -0.063,0.063 -0.204275,-0.063 -0.267269,0 -1.043083,1.04308 0.06187,0.14354 -0.267269,0.80181 -0.05635,0.11269 -0.210926,0.15458 -0.267272,0.26727 -0.03984,0.0797 0.063,0.20427 0,0.26727 -0.06299,0.063 -0.187584,-0.0398 -0.267269,0 -0.112691,0.0563 -0.178178,0.17818 -0.267268,0.26727 -0.08909,0.0891 -0.210926,0.15458 -0.267269,0.26727 -0.03984,0.0797 0.06299,0.20427 0,0.26727 -0.063,0.063 -0.204274,-0.063 -0.267272,0 -0.06299,0.063 0.02817,0.18275 0,0.26727 -0.06299,0.18899 -0.156765,0.36878 -0.267269,0.53454 -0.06989,0.10483 -0.227427,0.14774 -0.267268,0.26727 -0.08254,0.2476 0.08536,1.08024 0,1.33634 -0.645317,1.93595 0.07705,-0.42137 -0.534541,0.80181 -0.03984,0.0797 0,0.17818 0,0.26727 0,0.0891 0,0.17818 0,0.26727 0,0.44545 0,0.8909 0,1.33635 0,0.12602 -0.01212,1.32423 0,1.33635 0.18433,0.18433 0.499748,-0.19769 0.534541,-0.26727 0.03984,-0.0797 -0.07413,-0.21785 0,-0.26727 0.23441,-0.15627 0.549822,-0.14128 0.801809,-0.26727 0.112688,-0.0563 0.178178,-0.17818 0.267269,-0.26727 0.178178,-0.17818 0.324874,-0.39477 0.534537,-0.53454 0.331507,-0.22101 0.737571,-0.31354 1.069078,-0.53454 0.419328,-0.27955 0.636929,-0.80979 1.069078,-1.06908 0.241581,-0.14494 0.540232,-0.16264 0.80181,-0.26727 0.184962,-0.074 0.368786,-0.15676 0.53454,-0.26727 0.104831,-0.0699 0.147741,-0.22742 0.267269,-0.26727 0.169037,-0.0563 0.365503,0.0563 0.534538,0 0.119528,-0.0398 0.15458,-0.21092 0.267271,-0.26727 0.08134,-0.0407 0.68144,0 0.801807,0 0.231613,0 0.914257,-0.0516 1.069078,0 0.188989,0.063 0.341278,0.21896 0.53454,0.26727 0.17286,0.0432 0.356359,0 0.534538,0 0.267271,0 0.53454,0 0.801809,0 0.801809,0 1.603618,0 2.405425,0 0.139761,0 0.998802,-0.0351 1.069081,0 0.22538,0.11269 0.290075,0.47343 0.534537,0.53454 0.259289,0.0648 0.539729,-0.0524 0.801809,0 0.195342,0.0391 0.339196,0.2282 0.534538,0.26727 0.26208,0.0524 0.553657,-0.0993 0.801809,0 0.233961,0.0936 0.300578,0.44096 0.534541,0.53454 0.248152,0.0993 0.539728,-0.0524 0.801806,0 0.588124,0.11763 0.610984,0.45824 1.069078,0.80181 0.159369,0.11953 0.35636,0.17818 0.534541,0.26727 0.356359,0.17818 0.691102,0.40855 1.069078,0.53454 0.08452,0.0282 0.187584,-0.0398 0.267269,0 0.287305,0.14365 0.526367,0.36927 0.801809,0.53454 0.341643,0.20498 0.75034,0.29548 1.069078,0.53454 0.201586,0.15119 0.309157,0.42185 0.534537,0.53454 0.15937,0.0797 0.375172,-0.0797 0.534541,0 1.064974,0.53248 0.0011,0.53483 1.069078,0.8018 0.17286,0.0432 0.365503,-0.0563 0.534538,0 0.119528,0.0399 0.15458,0.21093 0.267271,0.26727 0.251984,0.126 0.549823,0.14128 0.801807,0.26727 0.112691,0.0563 0.147743,0.22743 0.267271,0.26727 0.169034,0.0563 0.356359,0 0.534538,0 0.267269,0 0.538176,-0.0439 0.801809,0 0.277895,0.0463 0.523915,0.22096 0.801809,0.26727 0.263634,0.0439 0.539729,-0.0524 0.801809,0 0.195342,0.0391 0.341276,0.21896 0.534538,0.26727 0.17286,0.0432 0.356359,0 0.53454,0 0.534538,0 1.069079,0 1.603616,0 0.534541,0 1.069078,0 1.603616,0 0.17818,0 0.36168,0.0432 0.53454,0 0.19326,-0.0483 0.34128,-0.21895 0.53454,-0.26727 0.17286,-0.0432 0.36168,0.0432 0.53454,0 0.53077,-0.13269 1.07285,-0.66911 1.60362,-0.80181 0.43215,-0.10803 0.90419,0.10804 1.33634,0 0.12223,-0.0306 0.15458,-0.21092 0.26727,-0.26727 0.0797,-0.0398 0.18084,0.0216 0.26727,0 0.27332,-0.0683 0.54983,-0.14127 0.80181,-0.26727 0.11269,-0.0563 0.14774,-0.22742 0.26727,-0.26726 0.16904,-0.0564 0.35636,0 0.53454,0 0.26727,0 0.53973,0.0524 0.80181,0 0.19534,-0.0391 0.3392,-0.2282 0.53454,-0.26727 2.0389,0 -0.21084,0.11952 1.33635,-0.26727 0.17285,-0.0432 0.35636,0 0.53453,0 0.44545,0 0.8909,0 1.33635,0 0.0891,0 0.20428,-0.063 0.26727,0 0.14086,0.14086 0.12641,0.39367 0.26727,0.53454 0.28173,0.28172 0.78735,0.25281 1.06908,0.53453 0.14086,0.14087 0.1079,0.41502 0.26727,0.53454 0.22538,0.16904 0.56023,0.12233 0.80181,0.26727 0.44545,0.26727 0.44545,0.53454 0.80181,0.80181 0.25697,0.19273 0.52636,0.36928 0.8018,0.53454 0.17083,0.10249 0.37518,0.14774 0.53454,0.26727 0.20159,0.15119 0.33296,0.38335 0.53454,0.53454 0.15937,0.11953 0.36372,0.16478 0.53454,0.26727 0.27544,0.16526 0.51451,0.39089 0.80181,0.53454 0.65827,0.32913 -0.24127,-0.77581 0.80181,0.26727 0.14086,0.14086 0.12641,0.39367 0.26727,0.53454 0.12599,0.12599 0.37517,-0.0797 0.53454,0 0.11269,0.0563 0.14774,0.22743 0.26727,0.26727 0.16903,0.0563 0.38175,-0.0917 0.53454,0 0.22272,0.13363 1.03938,1.09877 1.33634,1.33634 0.25083,0.20067 0.52637,0.36928 0.80181,0.53454 0.17083,0.10249 0.39368,0.12641 0.53454,0.26727 0.14086,0.14087 0.1079,0.41501 0.26727,0.53454 0.22538,0.16904 0.57643,0.0982 0.80181,0.26727 0.15937,0.11953 0.12641,0.39368 0.26727,0.53454 0.14086,0.14086 0.37898,0.14282 0.53454,0.26727 0.29515,0.23612 0.50666,0.56569 0.80181,0.80181 0.15555,0.12444 0.39367,0.1264 0.53454,0.26727 0.22713,0.22713 0.33387,0.55098 0.53453,0.80181 0.15742,0.19676 0.38335,0.33295 0.53455,0.53454 0.58536,0.78048 -0.13342,0.36766 0.8018,1.06907 0.15937,0.11953 0.37517,0.14775 0.53454,0.26727 0.37236,0.27927 0.73189,0.73189 1.06908,1.06908 0.0891,0.0891 0.26727,0.14128 0.26727,0.26727 0,0.32402 -0.3338,-0.0665 -0.53454,-0.26727 -0.51226,-0.51226 -0.12506,-0.0454 -0.53454,-1.06908 -0.074,-0.18496 -0.20427,-0.34555 -0.26727,-0.53454 -0.11616,-0.34847 -0.16635,-0.71588 -0.26727,-1.06907 -0.32323,-1.13132 -0.35341,-0.68913 -0.53454,-2.13816 -0.0331,-0.26521 0.0378,-0.53723 0,-0.80181 -0.0519,-0.36363 -0.17818,-0.71272 -0.26727,-1.06908 -0.0891,-0.44545 -0.21092,-0.88558 -0.26726,-1.33634 -0.0332,-0.26521 0.0439,-0.53818 0,-0.80181 -0.12664,-0.75979 -0.28527,-0.71317 -0.53455,-1.33635 -0.10462,-0.26158 -0.19894,-0.52849 -0.26726,-0.80181 -0.0648,-0.25929 0.0648,-0.54252 0,-0.80181 -0.0483,-0.19326 -0.20428,-0.34555 -0.26727,-0.53454 -0.0282,-0.0845 0.0282,-0.18275 0,-0.26727 -0.30712,-0.92133 -0.26727,-0.19798 -0.26727,-0.80181 0,-0.44544 0,-0.89089 0,-1.33634 0,-0.0891 -0.063,-0.20428 0,-0.26727 0.063,-0.063 0.20427,0.063 0.26727,0 0.55299,-0.55299 -0.84504,0.0216 0.26727,-0.53454 0.15937,-0.0797 0.37516,0.0797 0.53453,0 0.1127,-0.0563 0.17818,-0.17818 0.26728,-0.26727 0.17817,0 0.36167,0.0432 0.53453,0 0.19327,-0.0483 0.35636,-0.17818 0.53454,-0.26727 0.35636,-0.17818 0.6911,-0.40855 1.06908,-0.53454 0.4937,-0.16457 0.12671,0.40783 0.80181,-0.26727 0.063,-0.063 -0.0797,-0.22743 0,-0.26727 0.15937,-0.0797 0.3655,0.0564 0.53454,0 0.0223,-0.007 0.47896,-0.49285 0.53454,-0.53454 0.25697,-0.19273 0.57467,-0.3074 0.80181,-0.53454 0.063,-0.063 -0.063,-0.20427 0,-0.26727 0.14086,-0.14086 0.36878,-0.15676 0.53454,-0.26727 0.10483,-0.0699 0.16243,-0.19738 0.26726,-0.26727 0.16576,-0.1105 0.36879,-0.15676 0.53454,-0.26726 0.10484,-0.0699 0.15458,-0.21093 0.26727,-0.26727 0.0797,-0.0399 0.20428,0.063 0.26727,0 0.063,-0.063 -0.0398,-0.18759 0,-0.26727 0.11269,-0.22538 0.42185,-0.30916 0.53454,-0.53454 0.0398,-0.0797 -0.0282,-0.18276 0,-0.26727 0.32298,-0.96893 0.12681,-0.19022 0.53454,-0.80181 0.58884,-0.1346 0.14128,-0.54983 0.26727,-0.80181 0.0563,-0.11269 0.21093,-0.15458 0.26727,-0.26727 0.0595,-0.11893 -0.0408,-0.94683 0,-1.06908 0.0398,-0.11952 0.21092,-0.15458 0.26727,-0.26727 0.0483,-0.0966 0,-1.150445 0,-1.336345 0,-0.13976 0.0351,-0.9988 0,-1.06907 -0.11269,-0.22538 -0.42185,-0.30916 -0.53454,-0.53454 -0.0398,-0.07968 0.063,-0.204275 0,-0.267272 -0.14086,-0.140862 -0.39368,-0.126405 -0.53454,-0.267269 -0.063,-0.063 0.0494,-0.193141 0,-0.267269 -0.13978,-0.209664 -0.39476,-0.324877 -0.53454,-0.53454 -0.0494,-0.07413 0,-0.178179 0,-0.267269 -0.0891,-0.08909 -0.17818,-0.178179 -0.26727,-0.267269 -0.88642,-0.88642 0.12599,0.251984 -0.26727,-0.53454 -0.1315,-0.262999 -0.93757,-0.806077 -1.06907,-1.069078 -0.0797,-0.159367 0.0797,-0.375169 0,-0.534538 -0.88643,-0.886423 0.12599,0.251984 -0.26728,-0.534541 -0.0563,-0.112688 -0.21092,-0.154577 -0.26726,-0.267268 -0.0483,-0.09665 0,-1.150451 0,-1.336347 0,-0.08909 0.063,-0.204274 0,-0.267269 -0.063,-0.063 -0.20428,0.063 -0.26727,0 -0.063,-0.063 0.063,-0.204274 0,-0.267272 -0.063,-0.06299 -0.17818,0 -0.26727,0 -0.53454,0 -1.06908,0 -1.60362,0 -0.26727,0 -0.54252,0.06482 -0.80181,0 -0.12223,-0.03056 -0.15458,-0.210923 -0.26727,-0.267268 -0.0797,-0.03984 -0.17818,0 -0.26727,0 -0.10565,0 -1.2222,-0.05707 -1.33634,0 -0.22539,0.112691 -0.30916,0.421849 -0.53455,0.53454 -0.25198,0.125992 -0.56022,0.122322 -0.8018,0.267269 -0.43215,0.259289 -0.67555,0.75425 -1.06908,1.069078 -0.25083,0.200662 -0.57467,0.307403 -0.80181,0.534537 -0.14086,0.140865 -0.12641,0.393677 -0.26727,0.534541 -0.14086,0.140864 -0.34555,0.204274 -0.53454,0.267269 -0.0845,0.02817 -0.20427,-0.063 -0.26727,0 -0.063,0.063 0.063,0.204274 0,0.267269 -0.063,0.063 -0.18758,-0.03984 -0.26727,0 -0.11269,0.05635 -0.15458,0.210925 -0.26727,0.267271 -0.0797,0.03984 -0.20427,-0.063 -0.26727,0 -0.063,0.063 0.063,0.204272 0,0.267269 -0.063,0.063 -0.20427,-0.063 -0.26727,0 -0.063,0.063 0.063,0.204274 0,0.267269 -0.0546,0.05464 -0.69584,-0.05299 -0.8018,0 -0.1127,0.05634 -0.15458,0.210926 -0.26728,0.267269 -0.0797,0.03984 -0.17817,0 -0.26726,0 -0.0891,0 -0.17818,0 -0.26727,0 -0.53454,0 -1.06908,0 -1.60362,0 -0.35636,0 -0.71272,0 -1.06908,0 -0.17818,0 -0.35982,0.03495 -0.53454,0 -0.27625,-0.05525 -0.53454,-0.178179 -0.80181,-0.267269 -0.26727,-0.08909 -0.56023,-0.122322 -0.80181,-0.267269 -0.21607,-0.129646 -0.33295,-0.38335 -0.53453,-0.53454 -0.72117,-0.54087 -0.43799,0.0045 -1.33635,-0.534538 -0.21608,-0.129646 -0.31847,-0.404895 -0.53454,-0.534541 -0.24158,-0.144946 -0.56023,-0.122322 -0.80181,-0.267268 -0.21607,-0.129644 -0.33295,-0.383347 -0.53454,-0.534538 -0.31874,-0.239054 -0.73757,-0.313537 -1.06908,-0.53454 -0.36768,-0.245121 -0.27488,-0.412322 -0.53454,-0.80181 -0.0699,-0.10483 -0.17817,-0.178178 -0.26727,-0.267268 -0.0891,-0.08909 -0.15457,-0.210924 -0.26726,-0.267269 -0.0797,-0.03984 -0.20428,0.06299 -0.26727,0 -0.063,-0.063 0.0398,-0.187585 0,-0.267269 -0.16037,-0.320725 -0.64145,-0.481087 -0.80181,-0.801809 -0.0797,-0.159369 0.0563,-0.365504 0,-0.534541 -0.063,-0.188986 -0.20428,-0.345551 -0.26727,-0.534537 -0.0627,-0.187934 0.0733,-1.263087 0,-1.336347 -0.55299,-0.552993 0.0216,0.845042 -0.53454,-0.267272 -0.0797,-0.159369 0.12599,-0.408546 0,-0.534538 -0.063,-0.063 -0.20428,0.063 -0.26727,0 -0.12599,-0.125991 0.12599,-0.408548 0,-0.53454 -0.71272,0 0.0891,0.08909 -0.26727,-0.267269 -0.063,-0.06299 -0.17818,0 -0.26727,0 -0.0891,0 -0.17818,0 -0.26727,0 -0.12037,0 -0.72047,-0.04067 -0.80181,0 -0.22538,0.112692 -0.32487,0.394764 -0.53454,0.534541 -0.16575,0.1105 -0.39367,0.126404 -0.53454,0.267268 -0.063,0.063 0.0398,0.187585 0,0.267269 -0.0563,0.112692 -0.17818,0.178181 -0.26727,0.267269 -0.0891,0.08909 -0.15458,0.210926 -0.26726,0.267272 -0.0797,0.03984 -0.22743,-0.07968 -0.26728,0 -0.0797,0.159366 0.0797,0.375168 0,0.534537 -0.0398,0.07968 -0.20427,-0.06299 -0.26727,0 -0.063,0.063 0,0.178181 0,0.267269 0,0.534541 0,1.069078 0,1.603619 0,0.06482 -0.009,0.793213 0,0.801809 0.063,0.06299 0.18276,-0.02817 0.26727,0 0.18899,0.06299 0.36879,0.156765 0.53454,0.267269 0.2433,0.1622 0.56492,0.683363 0.80181,0.801809 0.15937,0.07968 0.37517,-0.07969 0.53454,0 1.11231,0.556154 -0.28572,-0.01844 0.26727,0.534538 0.063,0.063 0.20427,-0.063 0.26727,0 0.063,0.063 -0.063,0.204274 0,0.267268 0.063,0.063 0.20427,-0.06299 0.26727,0 0.12599,0.125992 -0.0797,0.375172 0,0.534541 0.0563,0.112691 0.21092,0.154577 0.26727,0.267269 0.0274,0.05482 0.0377,0.764116 0,0.801809 -0.063,0.06299 -0.20427,-0.063 -0.26727,0 -0.063,0.06299 0,0.178178 0,0.267269 0,0.423426 0.0797,0.722124 -0.26727,1.069078 -0.063,0.063 -0.18759,-0.03984 -0.26727,0 -0.11269,0.05634 -0.15458,0.210926 -0.26727,0.267269 -0.0797,0.03984 -0.20427,-0.063 -0.26727,0 -0.0828,0.08276 0.0828,1.25359 0,1.336349 -0.12599,0.125992 -0.40855,-0.125992 -0.53454,0 -0.063,0.063 0,0.178178 0,0.267269 0,0.06482 -0.009,0.79321 0,0.80181 0.063,0.063 0.20428,-0.063 0.26727,0 0.063,0.063 0,0.17818 0,0.26727 0,0.0891 0.0331,0.18455 0,0.26727 -0.14797,0.36992 -0.35636,0.71272 -0.53454,1.06907 z"
       id="path4599"
       inkscape:connector-curvature="0" />
    <path
       style="fill:#e3e4dc;fill-opacity:1;stroke:none;stroke-width:0.26458332px;stroke-linecap:butt;stroke-linejoin:miter;stroke-opacity:1"
       d="m 108.24415,135.56919 c -0.0614,-0.76028 -0.9869,-0.81219 -1.33634,-1.33635 -0.11051,-0.16575 -0.14775,-0.37516 -0.26727,-0.53453 -0.15119,-0.20159 -0.38335,-0.33296 -0.53454,-0.53454 -0.23905,-0.31874 -0.31354,-0.73757 -0.53454,-1.06908 -0.0699,-0.10483 -0.19738,-0.16244 -0.26727,-0.26727 -0.4394,0.16427 -0.20811,-0.68349 -0.26727,-0.80181 -0.0563,-0.11269 -0.21092,-0.15458 -0.26727,-0.26727 -0.12599,-0.25198 -0.16264,-0.54023 -0.26727,-0.80181 -0.074,-0.18496 -0.20427,-0.34555 -0.26727,-0.53454 -0.0576,-0.17284 0,-1.04451 0,-1.33635 0,-0.23886 -0.0426,-1.25117 0,-1.33634 0.0563,-0.11269 0.17818,-0.17818 0.26727,-0.26727 0.0891,-0.0891 0.15458,-0.21093 0.26727,-0.26727 0.0797,-0.0398 0.20427,0.063 0.26727,0 0.063,-0.063 -0.0398,-0.18759 0,-0.26727 0.1532,-0.3064 0.55766,-0.37178 0.80181,-0.53454 0.10483,-0.0699 0.17818,-0.17818 0.26727,-0.26727 0.17818,-0.17818 0.32488,-0.39476 0.53454,-0.53454 0.0741,-0.0494 0.18758,0.0398 0.26727,0 0.11269,-0.0563 0.16244,-0.19738 0.26727,-0.26727 0.16575,-0.1105 0.39367,-0.1264 0.53454,-0.26727 0.063,-0.063 0,-0.17818 0,-0.26727 0.17818,-0.0891 0.39367,-0.1264 0.53453,-0.26727 0.126,-0.12599 -0.12599,-0.40854 0,-0.53453 0.063,-0.063 0.20428,0.063 0.26727,0 0.063,-0.063 -0.063,-0.20428 0,-0.26728 0.063,-0.063 0.20428,0.063 0.26728,0 0.0121,-0.0121 0,-1.21033 0,-1.33634 0,-0.71272 -0.0891,0.0891 0.26726,-0.26727 0.009,-0.009 0,-0.73699 0,-0.80181 0,-1.51453 0,-3.02906 0,-4.54358 0,-0.0891 0,-0.17818 0,-0.26727 0,-0.0891 -0.063,-0.20427 0,-0.26727 0.063,-0.063 0.20428,0.063 0.26727,0 0.063,-0.063 -0.0797,-0.22743 0,-0.26727 0.0707,-0.0353 1.34096,0 1.60362,0 0.0891,0 0.20427,0.063 0.26727,0 0.063,-0.063 -0.063,-0.20427 0,-0.26727 0.12599,-0.12599 0.37517,0.0797 0.53454,0 0.11269,-0.0564 0.15458,-0.21093 0.26727,-0.26727 0.0797,-0.0398 0.17818,0 0.26727,0 0.0891,0 0.17818,0 0.26727,0 0.53454,0 1.06908,0 1.60362,0 1.15816,0 2.31633,0 3.4745,0 1.42544,0 2.85087,0 4.27631,0 0.53454,0 1.06908,0 1.60362,0 0.26727,0 0.54825,-0.0845 0.80181,0 0.11952,0.0398 0.15458,0.21092 0.26727,0.26727 0.0797,0.0398 0.17818,0 0.26727,0 0.17817,0 0.3655,-0.0564 0.53453,0 0.11953,0.0398 0.16244,0.19738 0.26728,0.26727 0.16575,0.1105 0.34555,0.20427 0.53453,0.26727 0.79562,0.2652 -0.54838,-0.63286 0.80181,0.26727 0.20967,0.13977 0.29549,0.45485 0.53454,0.53454 0.0666,0.0222 1.30882,-0.0275 1.33635,0 0.0107,0.0107 0,0.97092 0,1.06908 0,0.97998 0,1.95997 0,2.93996 0,0.1859 -0.0483,1.23969 0,1.33635 0.0563,0.11269 0.21092,0.15458 0.26727,0.26727 0.0398,0.0797 -0.0399,0.18758 0,0.26727 0.0563,0.11269 0.21092,0.15458 0.26727,0.26727 0.0797,0.15937 -0.12599,0.40854 0,0.53453 0.063,0.063 0.20427,-0.063 0.26727,0 0.64914,0.64915 -0.0795,0.39247 0.53454,0.80181 0.97084,0.64723 0.189,-0.0783 0.80181,0.53454 0.17817,0.17818 0.32487,0.39477 0.53453,0.53454 0.16576,0.11051 0.35636,0.17818 0.53454,0.26727 0.3565,0.17825 0.71259,0.35629 1.06908,0.53454 0.17818,0.0891 0.37517,0.14774 0.53454,0.26727 1.35081,1.0131 -0.2248,0.15487 1.06908,0.80181 0.35636,0.17818 0.71272,0.35636 1.06908,0.53454 0.17818,0.0891 0.37517,0.14774 0.53454,0.26727 1.15601,1.15602 -0.0708,0.0419 1.06907,0.8018 0.20967,0.13978 0.30916,0.42185 0.53454,0.53455 0.0797,0.0398 0.20428,-0.063 0.26727,0 0.063,0.063 -0.0398,0.18758 0,0.26726 0.0563,0.1127 0.17818,0.17818 0.26727,0.26727 0.0891,0.0891 0.15458,0.21093 0.26727,0.26727 0.0797,0.0399 0.20427,-0.063 0.26727,0 0.12599,0.126 -0.12599,0.40855 0,0.53454 0.14086,0.14087 0.42404,0.10152 0.53454,0.26727 0.0988,0.14826 -0.0797,0.37517 0,0.53454 0.0398,0.0797 0.20427,-0.063 0.26727,0 0.063,0.063 -0.0398,0.18759 0,0.26727 0.0563,0.11269 0.21092,0.15458 0.26727,0.26727 0.0398,0.0797 0,0.17818 0,0.26727 0,0.12091 -0.0356,1.53239 0,1.60362 0.0563,0.11269 0.22743,0.14774 0.26727,0.26727 0.0845,0.25355 0,0.53454 0,0.8018 0,0.71272 0,1.42544 0,2.13816 0,0.17231 0.0383,1.01165 0,1.06908 -0.13978,0.20966 -0.33295,0.38335 -0.53454,0.53454 -0.15937,0.11952 -0.42404,0.10151 -0.53454,0.26727 -0.0988,0.14825 0.0797,0.37517 0,0.53454 -0.0398,0.0797 -0.18759,-0.0399 -0.26727,0 -0.22538,0.11269 -0.30916,0.42184 -0.53454,0.53454 -0.0797,0.0398 -0.18759,-0.0399 -0.26727,0 -0.11269,0.0563 -0.17818,0.17818 -0.26727,0.26726 -0.0891,0.0891 -0.21092,0.15458 -0.26727,0.26728 -0.0398,0.0797 0.063,0.20427 0,0.26726 -0.14086,0.14087 -0.39367,0.12641 -0.53454,0.26727 -0.063,0.063 0.0399,0.18759 0,0.26727 -0.0563,0.11269 -0.21092,0.15458 -0.26727,0.26727 -0.0725,0.14499 0.0731,0.99595 0,1.06908 -0.063,0.063 -0.20427,-0.063 -0.26727,0 -0.063,0.063 0.063,0.20427 0,0.26727 -0.063,0.063 -0.20427,-0.063 -0.26726,0 -0.063,0.063 0,0.17818 0,0.26727 0,0.3157 0.053,1.44468 0,1.60362 -0.0399,0.11952 -0.19739,0.16243 -0.26727,0.26727 -0.11051,0.16575 -0.20428,0.34555 -0.26727,0.53453 -0.16457,0.49371 0.40782,0.12672 -0.26727,0.80181 -0.063,0.063 -0.20428,-0.063 -0.26727,0 -0.0108,0.0108 0,0.97093 0,1.06908 0,0.44545 0,0.8909 0,1.33635 0,0.17818 0.0797,0.37517 0,0.53454 -0.0399,0.0797 -0.22743,-0.0797 -0.26727,0 -0.0797,0.15937 0.0563,0.3655 0,0.53454 -0.0398,0.11953 -0.21093,0.15458 -0.26727,0.26727 -0.0398,0.0797 0.0398,0.18758 0,0.26727 -0.11269,0.22538 -0.42185,0.30915 -0.53454,0.53453 -0.0398,0.0797 0.0797,0.22743 0,0.26728 -0.15937,0.0797 -0.3655,-0.0563 -0.53454,0 -0.23905,0.0797 -0.30916,0.42184 -0.53454,0.53453 -0.0797,0.0399 -0.18759,-0.0398 -0.26727,0 -0.11269,0.0563 -0.15458,0.21093 -0.26727,0.26727 -0.0797,0.0399 -0.18758,-0.0398 -0.26727,0 -0.11269,0.0563 -0.14774,0.22743 -0.26727,0.26727 -0.33807,0.1127 -0.72336,-0.0864 -1.06907,0 -0.19327,0.0483 -0.34556,0.20428 -0.53454,0.26727 -0.0845,0.0282 -0.18085,-0.0216 -0.26727,0 -0.27332,0.0683 -0.52556,0.21202 -0.80181,0.26727 -0.26208,0.0524 -0.54826,-0.0845 -0.80181,0 -0.18899,0.063 -0.34128,0.21896 -0.53454,0.26727 -0.17286,0.0432 -0.3655,-0.0563 -0.53454,0 -0.11953,0.0398 -0.14774,0.22743 -0.26727,0.26727 -0.16904,0.0564 -0.35636,0 -0.53454,0 -0.62363,0 -1.24726,0 -1.87088,0 -0.80181,0 -1.60362,0 -2.40543,0 -0.23161,0 -0.91426,0.0516 -1.06908,0 -0.18899,-0.063 -0.3392,-0.2282 -0.53454,-0.26727 -0.95783,-0.19157 -0.68075,0.28645 -1.60362,-0.26727 -0.21607,-0.12964 -0.30915,-0.42184 -0.53453,-0.53454 -0.15937,-0.0797 -0.35636,0 -0.53454,0 -0.17818,-0.0891 -0.36879,-0.15676 -0.53454,-0.26727 -0.10483,-0.0699 -0.17818,-0.17818 -0.26727,-0.26727 -0.0891,-0.0891 -0.21093,-0.15457 -0.26727,-0.26726 -0.0398,-0.0797 0.063,-0.20428 0,-0.26727 -0.063,-0.063 -0.20427,0.063 -0.26727,0 -0.12599,-0.126 0.0563,-0.36551 0,-0.53454 -0.063,-0.18899 -0.12641,-0.39368 -0.26727,-0.53454 -0.063,-0.063 -0.22743,0.0797 -0.26727,0 -0.0797,-0.15937 0.0432,-0.36168 0,-0.53454 0.48399,-1.11819 -0.42185,-0.30916 -0.53454,-0.53454 -0.0797,-0.15937 0.0564,-0.3655 0,-0.53454 -0.0797,-0.23905 -0.42185,-0.30916 -0.53454,-0.53454 -0.0398,-0.0797 0.0398,-0.18758 0,-0.26727 -0.0563,-0.11269 -0.21092,-0.15458 -0.26727,-0.26727 -0.0856,-0.17126 0.083,-1.43763 0,-1.60361 -0.0563,-0.1127 -0.22742,-0.14775 -0.26727,-0.26728 -0.0563,-0.16903 0.0797,-0.37516 0,-0.53453 -0.0398,-0.0797 -0.20427,0.063 -0.26727,0 -0.0643,-0.0643 0.0643,-1.00477 0,-1.06908 -0.063,-0.063 -0.22742,0.0797 -0.26726,0 -0.0797,-0.15937 0.0563,-0.3655 0,-0.53454 -0.0797,-0.23905 -0.42185,-0.30916 -0.53454,-0.53454 -0.0399,-0.0797 0.0398,-0.18758 0,-0.26727 -0.0563,-0.11269 -0.21093,-0.15458 -0.26727,-0.26727 -0.0399,-0.0797 0.0398,-0.18758 0,-0.26727 -0.1127,-0.22538 -0.45486,-0.29548 -0.53454,-0.53454 -0.0564,-0.16903 0.0797,-0.37517 0,-0.53454 -0.0399,-0.0797 -0.20428,0.063 -0.26727,0 -0.12599,-0.12599 0.12599,-0.40854 0,-0.53453 -0.063,-0.063 -0.20428,0.063 -0.26727,0 -0.12599,-0.126 0.12599,-0.40855 0,-0.53454 -0.13364,-0.13364 -0.66818,0.13363 -0.80181,0 -0.063,-0.063 0.063,-0.20428 0,-0.26727 -0.12599,-0.126 -0.40855,0.12599 -0.53454,0 -0.12599,-0.126 0.12599,-0.40855 0,-0.53454 -0.12599,-0.126 -0.37517,0.0797 -0.53454,0 -0.11269,-0.0563 -0.15458,-0.21093 -0.26727,-0.26727 -0.0797,-0.0398 -0.20427,0.063 -0.26727,0 -0.063,-0.063 0.063,-0.20428 0,-0.26727 -0.14086,-0.14087 -0.39367,-0.12641 -0.53454,-0.26727 -0.063,-0.063 0.063,-0.20427 0,-0.26727 -0.45921,-0.45921 -0.81555,-0.0275 -1.06908,-0.53454 -0.0398,-0.0797 0,-0.17818 0,-0.26727 0,-0.35636 0,-0.71272 0,-1.06908 z"
       id="path4601"
       inkscape:connector-curvature="0" />
    <path
       style="fill:#e3e4dc;fill-opacity:1;stroke:none;stroke-width:0.26458332px;stroke-linecap:butt;stroke-linejoin:miter;stroke-opacity:1"
       d="m 86.862596,184.74679 c 1.444384,0.86663 0.969021,0.43448 1.603616,1.06907 0.08909,0.0891 0.210926,0.15458 0.267271,0.26728 0.03984,0.0797 -0.063,0.20427 0,0.26726 0.06299,0.063 0.204272,-0.063 0.267269,0 0.063,0.063 -0.063,0.20428 0,0.26727 0.063,0.063 0.204272,-0.063 0.267269,0 0.063,0.063 -0.063,0.20428 0,0.26727 0.125992,0.126 0.375171,-0.0797 0.53454,0 0.22538,0.11269 0.295484,0.45486 0.534538,0.53454 0.169037,0.0564 0.386284,-0.0988 0.53454,0 0.165754,0.11051 0.101516,0.42404 0.267269,0.53454 0.148254,0.0988 0.365504,-0.0563 0.534538,0 0.161324,0.0538 1.138325,1.23734 1.33635,1.33635 1.580599,0.7903 -0.571638,-0.96327 1.069078,0.26727 0.201586,0.15119 0.309157,0.42185 0.534537,0.53454 0.159369,0.0797 0.386284,-0.0988 0.534541,0 0.165753,0.1105 0.126404,0.39367 0.267269,0.53454 0.08483,0.0848 1.450879,0.75089 1.603615,0.80181 0.08452,0.0282 0.187587,-0.0399 0.267272,0 0.22538,0.11269 0.309157,0.42185 0.534537,0.53453 0.07968,0.0399 0.182753,-0.0282 0.267269,0 1.935946,0.64532 -0.421378,-0.0771 0.80181,0.53454 0.07968,0.0399 0.178181,0 0.267268,0 0.178181,0 0.36168,-0.0432 0.534541,0 0.483747,-0.16109 0.497077,0.43297 0.801807,0.53454 0.16904,0.0564 0.35636,0 0.53454,0 0.0891,0 0.18759,-0.0398 0.26727,0 0.11269,0.0564 0.15458,0.21093 0.26727,0.26727 0.0797,0.0398 0.17818,0 0.26727,0 0.0891,0.0891 0.15458,0.21093 0.26727,0.26727 0.0797,0.0398 0.18758,-0.0398 0.26727,0 0.11269,0.0564 0.15458,0.21093 0.26727,0.26727 0.0797,0.0398 0.20427,-0.063 0.26727,0 0.063,0.063 -0.063,0.20428 0,0.26727 0.55299,0.55299 -0.0216,-0.84504 0.53454,0.26727 0.14254,0.28509 -0.26459,0.35726 0.26727,0.53454 1.51452,0 0.0891,-0.17818 0.53453,0.26727 0.35775,0.35775 0.1768,-0.35775 0.53454,0 0.063,0.063 -0.0398,0.18759 0,0.26727 0.0563,0.11269 0.22743,0.14774 0.26727,0.26727 0.0564,0.16904 -0.0432,0.36168 0,0.53454 0.0483,0.19326 0.20428,0.34555 0.26727,0.53454 0.0282,0.0845 0,0.17817 0,0.26727 0,0.17818 -0.0563,0.3655 0,0.53454 0.0797,0.23905 0.42185,0.30915 0.53454,0.53453 0.0398,0.0797 -0.063,0.20428 0,0.26727 0.12599,0.12599 0.40855,-0.12599 0.53454,0 0.063,0.063 -0.063,0.20428 0,0.26727 0.063,0.063 0.20427,-0.063 0.26727,0 0.063,0.063 -0.063,0.20428 0,0.26727 2.6e-4,2.6e-4 0.8006,-5.3e-4 0.80181,0 0.11953,0.0398 0.15458,0.21093 0.26727,0.26727 0.0797,0.0399 0.17818,0 0.26727,0 0.26727,0 0.53454,0 0.80181,0 0.89089,0 1.78179,0 2.67269,0 1.24726,0 2.49452,0 3.74178,0 0.44544,0 0.89089,0 1.33634,0 0.17563,0 0.65102,0.0503 0.80181,0 0.18899,-0.063 0.34128,-0.21895 0.53454,-0.26727 0.41925,-0.10481 0.9171,0.10481 1.33635,0 0.38652,-0.0966 0.6911,-0.40855 1.06908,-0.53454 0.16821,-0.0561 1.09544,0 1.33634,0 0.0891,0 0.18275,0.0282 0.26727,0 0.18899,-0.063 0.34128,-0.21895 0.53454,-0.26727 0.25929,-0.0648 0.54826,0.0845 0.80181,0 0.18899,-0.063 0.34555,-0.20427 0.53454,-0.26727 0.16904,-0.0563 0.37517,0.0797 0.53454,0 1.11231,-0.55615 -0.28572,0.0185 0.26727,-0.53454 0.009,-0.009 0.73699,0 0.80181,0 0.62679,0 -0.126,0.063 0.53454,-0.26726 0.0797,-0.0399 0.20427,0.063 0.26727,0 0.14086,-0.14087 0.15676,-0.36879 0.26726,-0.53454 0.0699,-0.10484 0.17818,-0.17818 0.26728,-0.26727 0.0891,-0.0891 0.15457,-0.21093 0.26726,-0.26727 0.15937,-0.0797 0.36551,0.0563 0.53454,0 0.18899,-0.063 0.34555,-0.20428 0.53454,-0.26727 0.16904,-0.0563 0.36168,0.0432 0.53454,0 2.70039,-0.6751 -0.19302,0.0965 1.06908,-0.53454 0.0797,-0.0398 0.18275,0.0282 0.26727,0 0.18899,-0.063 0.34555,-0.20427 0.53454,-0.26727 0.0845,-0.0282 0.18084,0.0216 0.26727,0 0.27331,-0.0683 0.52555,-0.21202 0.80181,-0.26727 0.17472,-0.0349 0.3655,0.0564 0.53454,0 0.11952,-0.0398 0.15457,-0.21093 0.26726,-0.26727 0.0813,-0.0407 0.68145,0 0.80181,0 0.0891,0 0.20428,-0.063 0.26727,0 0.12599,0.12599 -0.0797,0.37517 0,0.53454 0.11269,0.22538 0.42185,0.30916 0.53454,0.53454 0.0398,0.0797 0,0.17818 0,0.26727 0,0.26727 0.0845,0.54825 0,0.80181 -0.0398,0.11952 -0.21092,0.15458 -0.26727,0.26727 -0.0398,0.0797 0.0399,0.18758 0,0.26727 -0.0563,0.11269 -0.21092,0.15458 -0.26727,0.26726 -0.0398,0.0797 0.063,0.20428 0,0.26728 -0.55299,0.55299 0.0216,-0.84505 -0.53454,0.26726 -0.0398,0.0797 0.0399,0.18759 0,0.26727 -0.0563,0.11269 -0.17818,0.17818 -0.26727,0.26727 -0.0891,0.0891 -0.15457,0.21093 -0.26727,0.26727 -0.65827,0.32914 0.24128,-0.77581 -0.8018,0.26727 -0.063,0.063 0.063,0.20428 0,0.26727 -0.063,0.063 -0.18759,-0.0398 -0.26727,0 -0.11269,0.0564 -0.15458,0.21093 -0.26727,0.26727 -0.0797,0.0398 -0.20428,-0.063 -0.26727,0 -0.063,0.063 0.063,0.20427 0,0.26727 -0.063,0.063 -0.18759,-0.0398 -0.26727,0 -0.88642,0.88642 0.25198,-0.12599 -0.53454,0.26727 -1.22319,0.6116 1.13414,-0.11078 -0.80181,0.53454 -0.0845,0.0282 -0.17818,0 -0.26727,0 -0.17818,0 -0.3655,-0.0563 -0.53454,0 -0.11952,0.0398 -0.17818,0.17818 -0.26727,0.26727 -0.17818,0 -0.3655,-0.0564 -0.53454,0 -0.11952,0.0398 -0.15458,0.21092 -0.26727,0.26727 -0.0797,0.0398 -0.20427,-0.063 -0.26727,0 -0.063,0.063 0.063,0.20427 0,0.26727 -0.12599,0.12599 -0.40854,-0.12599 -0.53454,0 -0.063,0.063 0.063,0.20427 0,0.26727 -0.13363,0.13363 -0.66817,-0.13364 -0.8018,0 -0.063,0.063 0.063,0.20427 0,0.26727 -0.063,0.063 -0.20428,-0.063 -0.26727,0 -0.063,0.063 0.063,0.20427 0,0.26727 -0.0546,0.0546 -0.69584,-0.053 -0.80181,0 -0.11269,0.0563 -0.15458,0.21092 -0.26727,0.26727 -0.25199,0.12599 -0.52849,0.19894 -0.80181,0.26726 -0.0864,0.0216 -0.18759,-0.0398 -0.26727,0 -0.11269,0.0564 -0.14774,0.22743 -0.26727,0.26728 -1.21669,0 -0.0153,-0.126 -0.80181,0.26726 -0.0797,0.0399 -0.20427,-0.063 -0.26727,0 -0.14086,0.14087 -0.15677,0.36879 -0.26727,0.53454 -0.0699,0.10484 -0.17818,0.17818 -0.26726,0.26727 -0.17819,0.17818 -0.35636,0.35636 -0.53455,0.53454 -0.0891,0.0891 -0.16243,0.19738 -0.26726,0.26727 -0.33151,0.22101 -0.73758,0.31354 -1.06908,0.53454 -0.10484,0.0699 -0.15458,0.21092 -0.26727,0.26727 -0.0797,0.0398 -0.18759,-0.0398 -0.26727,0 -0.11269,0.0564 -0.15458,0.21093 -0.26727,0.26727 -0.0797,0.0398 -0.17818,0 -0.26727,0 -0.26727,0 -0.54252,-0.0648 -0.80181,0 -0.12223,0.0306 -0.14774,0.22743 -0.26727,0.26727 -0.16904,0.0563 -0.36168,-0.0432 -0.53454,0 -0.19326,0.0483 -0.34127,0.21895 -0.53454,0.26727 -0.17286,0.0432 -0.3655,-0.0564 -0.53454,0 -0.11952,0.0398 -0.15457,0.21092 -0.26727,0.26727 -0.14499,0.0725 -0.99594,-0.0731 -1.06907,0 -0.063,0.063 0.063,0.20427 0,0.26727 -0.063,0.063 -0.17818,0 -0.26727,0 -0.18944,0 -1.53452,-0.0345 -1.60362,0 -0.11269,0.0563 -0.15458,0.21092 -0.26727,0.26727 -0.15937,0.0797 -0.40855,-0.12599 -0.53454,0 -0.12599,0.12599 0.12599,0.40854 0,0.53454 -0.063,0.063 -0.17818,0 -0.26727,0 -0.53454,0 -1.06908,0 -1.60361,0 -0.71272,0 -1.42544,0 -2.13816,0 -0.17818,0 -0.35636,0 -0.53454,0 -0.17818,0 -0.36168,0.0432 -0.53454,0 -0.19326,-0.0483 -0.3392,-0.2282 -0.53454,-0.26727 -0.26208,-0.0524 -0.53454,0 -0.80181,0 -0.26727,0 -0.53454,0 -0.8018,0 -0.0891,0 -0.18084,0.0216 -0.26728,0 -2.22462,-0.55616 0.32263,0.0184 -1.33634,-0.53454 -0.0845,-0.0282 -0.18275,0.0282 -0.26727,0 -0.18899,-0.063 -0.34555,-0.20427 -0.53454,-0.26727 -0.22503,-0.075 -1.17723,0.0796 -1.33635,0 -0.11269,-0.0564 -0.15458,-0.21093 -0.26727,-0.26727 -0.0797,-0.0398 -0.18275,0.0282 -0.26727,0 -0.18899,-0.063 -0.341275,-0.21895 -0.534537,-0.26727 -0.345721,-0.0864 -0.723358,0.0864 -1.069078,0 -0.193263,-0.0483 -0.349576,-0.19329 -0.534541,-0.26727 -0.261575,-0.10463 -0.528492,-0.19894 -0.801806,-0.26727 -0.17286,-0.0432 -0.375171,0.0797 -0.534541,0 -0.112691,-0.0563 -0.154577,-0.21092 -0.267268,-0.26727 -0.166577,-0.0833 -1.443689,0.08 -1.603619,0 -0.07968,-0.0398 0.063,-0.20427 0,-0.26727 -0.09382,-0.0938 -1.151734,0.0923 -1.336347,0 -0.112691,-0.0563 -0.154577,-0.21092 -0.267269,-0.26727 -0.09665,-0.0483 -1.15045,0 -1.336346,0 -1.069079,0 -2.138157,0 -3.207235,0 -0.62363,0 -1.247259,0 -1.870887,0 -0.08909,0 -0.204274,0.063 -0.267271,0 -0.063,-0.063 0.063,-0.20427 0,-0.26727 -0.06431,-0.0643 -1.004764,0.0643 -1.069078,0 -0.063,-0.063 0.063,-0.20427 0,-0.26727 -0.133634,-0.13363 -0.668174,0.13364 -0.801807,0 -0.063,-0.063 0.07968,-0.22742 0,-0.26727 -0.159369,-0.0797 -0.365503,0.0563 -0.53454,0 -0.119526,-0.0398 -0.154578,-0.21092 -0.267269,-0.26727 -0.07968,-0.0398 -0.204274,0.063 -0.267269,0 -0.063,-0.063 0.063,-0.20427 0,-0.26727 -0.140864,-0.14086 -0.368787,-0.15676 -0.53454,-0.26727 -0.230627,-0.15375 -0.593048,-0.59304 -0.80181,-0.8018 -0.08909,-0.0891 -0.154577,-0.21093 -0.267268,-0.26727 -0.07968,-0.0398 -0.187585,0.0398 -0.267269,0 -0.225383,-0.11269 -0.295487,-0.45486 -0.534541,-0.53454 -1.514525,0 -0.08909,0.17818 -0.534537,-0.26727 -0.063,-0.063 -0.182753,0.0282 -0.267269,0 -0.188989,-0.063 -0.393676,-0.12641 -0.534541,-0.26727 -0.675097,-0.6751 -0.1027,-0.30811 -0.267268,-0.80181 -0.08909,-0.17818 -0.178181,-0.35636 -0.267269,-0.53454 -0.08909,0 -0.204274,0.063 -0.267272,0 -0.06299,-0.063 0.03984,-0.18759 0,-0.26727 -0.05635,-0.11269 -0.210923,-0.15458 -0.267269,-0.26727 -0.03984,-0.0797 0.063,-0.20427 0,-0.26727 -0.125992,-0.12599 -0.408545,0.12599 -0.534537,0 -0.063,-0.063 0.06299,-0.20427 0,-0.26727 -0.063,-0.063 -0.178181,0 -0.267272,0 0,-0.0891 0.03984,-0.18758 0,-0.26727 -0.295473,-0.59094 -0.165878,-0.0829 -0.534537,-0.26727 -0.225383,-0.11269 -0.324877,-0.39476 -0.534541,-0.53453 -0.165753,-0.11051 -0.393673,-0.12641 -0.534538,-0.26728 -0.063,-0.063 0.04942,-0.19314 0,-0.26726 -0.139776,-0.20967 -0.356359,-0.35636 -0.53454,-0.53454 -0.08909,-0.0891 -0.162438,-0.19738 -0.267269,-0.26727 -0.165753,-0.1105 -0.375171,-0.14774 -0.534537,-0.26727 -0.201589,-0.15119 -0.324877,-0.39477 -0.534541,-0.53454 -0.07413,-0.0494 -0.187584,0.0398 -0.267269,0 -0.204165,-0.10208 -0.620829,-0.74148 -0.801809,-0.80181 -0.169037,-0.0564 -0.365503,0.0564 -0.53454,0 -0.119526,-0.0398 -0.178179,-0.17818 -0.267269,-0.26727 -0.178178,-0.0891 -0.345551,-0.20427 -0.534538,-0.26727 -0.169037,-0.0564 -0.365503,0.0563 -0.53454,0 -0.188987,-0.063 -0.345551,-0.20427 -0.534538,-0.26727 -0.169037,-0.0563 -0.375171,0.0797 -0.53454,0 -0.112691,-0.0563 -0.154578,-0.21092 -0.267269,-0.26727 -0.159369,-0.0797 -0.408548,0.12599 -0.53454,0 -0.063,-0.063 0.063,-0.20427 0,-0.26727 -0.063,-0.063 -0.182751,0.0282 -0.267269,0 -0.188987,-0.063 -0.393676,-0.1264 -0.534538,-0.26727 -0.063,-0.063 0.063,-0.20427 0,-0.26727 -0.063,-0.063 -0.204274,0.063 -0.267271,0 -0.063,-0.063 0.063,-0.20427 0,-0.26727 -0.063,-0.063 -0.187585,0.0399 -0.267269,0 -0.112692,-0.0563 -0.210923,-0.15458 -0.267269,-0.26726 -0.0114,-0.0228 -0.0114,-1.0463 0,-1.06908 0.05635,-0.11269 0.178178,-0.17818 0.267269,-0.26727 0.305797,-0.3058 0.316386,-0.37274 0.801809,-0.53454 0.169037,-0.0564 0.356359,0 0.534538,0 0.53454,0 1.069078,0 1.603618,0 1.336347,0 2.672697,0 4.009043,0 0.35636,0 0.712719,0 1.069078,0 0.178179,0 0.365504,-0.0564 0.534538,0 0.119528,0.0398 0.15458,0.21092 0.267272,0.26727 0.07968,0.0398 0.178178,0 0.267269,0 0.178178,0 0.365503,-0.0564 0.534537,0 0.119528,0.0398 0.147744,0.22743 0.267272,0.26727 0.137689,0.0459 1.588161,0 1.870884,0 0.139761,0 0.998802,0.0351 1.069078,0 0.112692,-0.0564 0.147744,-0.22743 0.267272,-0.26727 0.240541,-0.0802 0.561266,0.0802 0.801806,0 1.935946,-0.64532 -0.421378,0.077 0.80181,-0.53454 0.07968,-0.0398 0.204274,0.063 0.267268,0 0.063,-0.063 -0.06299,-0.20427 0,-0.26727 0.063,-0.063 0.204275,0.063 0.267272,0 0.01074,-0.0108 0,-0.97093 0,-1.06908 0,-0.6268 -0.063,0.12599 0.267269,-0.53454 0.106907,-0.21381 -0.106908,-0.58799 0,-0.80181 0.05635,-0.11269 0.210923,-0.15458 0.267269,-0.26727 0.05299,-0.10597 -0.05464,-0.74717 0,-0.80181 0.063,-0.063 0.204274,0.063 0.267269,0 0.063,-0.063 -0.06299,-0.20427 0,-0.26726 0.063,-0.063 0.204274,0.063 0.267271,0 0.063,-0.063 -0.063,-0.20428 0,-0.26728 0.063,-0.063 0.187584,0.0399 0.267269,0 0.112691,-0.0563 0.154577,-0.21092 0.267269,-0.26726 0.159369,-0.0797 0.408548,0.12599 0.53454,0 0.063,-0.063 0,-0.17818 0,-0.26727 0.356359,-0.17818 0.712719,-0.35636 1.069078,-0.53454 z"
       id="path4603"
       inkscape:connector-curvature="0" />
    <path
       style="fill:#e3e4dc;fill-opacity:1;stroke:none;stroke-width:0.26458332px;stroke-linecap:butt;stroke-linejoin:miter;stroke-opacity:1"
       d="m 86.862596,167.37427 c -0.178178,0.44545 -0.356359,0.8909 -0.534538,1.33635 -0.08909,0.0891 -0.210925,0.15457 -0.267271,0.26727 -0.03984,0.0797 0.03984,0.18758 0,0.26726 -0.05635,0.1127 -0.210923,0.15458 -0.267269,0.26728 -0.329136,0.65827 0.775811,-0.24128 -0.267269,0.8018 -0.063,0.063 -0.204274,-0.063 -0.267271,0 -0.140862,0.14087 -0.126405,0.39368 -0.267269,0.53454 -0.140862,0.14087 -0.393676,0.12641 -0.534538,0.26727 -0.140864,0.14087 -0.156768,0.36879 -0.267271,0.53454 -0.06989,0.10483 -0.178179,0.17818 -0.267269,0.26727 -0.178179,0.17818 -0.35636,0.35636 -0.534538,0.53454 -0.178181,0.17818 -0.324877,0.39476 -0.53454,0.53454 -0.165754,0.1105 -0.375169,0.14774 -0.534538,0.26727 -0.201589,0.15119 -0.324877,0.39476 -0.53454,0.53454 -0.148254,0.0988 -0.408546,-0.12599 -0.534538,0 -0.063,0.063 0.063,0.20427 0,0.26727 -0.063,0.063 -0.204274,-0.063 -0.267272,0 -0.06299,0.063 0,0.17818 0,0.26727 0,0.0891 0,0.17818 0,0.26726 0,0.71272 0,1.42544 0,2.13816 0,0.0891 0,0.17818 0,0.26727 0,0.0891 -0.06299,0.20427 0,0.26727 0.063,0.063 0.204275,-0.063 0.267272,0 0.063,0.063 0,0.17818 0,0.26727 0,0.18944 -0.03455,1.53451 0,1.60362 0.295473,0.59095 0.165878,0.0829 0.534538,0.26727 0.07096,0.0355 0.766328,0.73084 0.801809,0.80181 0.03984,0.0797 -0.03984,0.18758 0,0.26727 0.05635,0.11269 0.210923,0.15458 0.267269,0.26726 0.03984,0.0797 -0.03984,0.18759 0,0.26728 0.112691,0.22538 0.421849,0.30915 0.53454,0.53453 0.03984,0.0797 -0.04942,0.19315 0,0.26727 0.139774,0.20967 0.383347,0.33295 0.534538,0.53454 0.119528,0.15937 0.156768,0.36879 0.267269,0.53454 0.06989,0.10483 0.210925,0.15458 0.267271,0.26727 0.05299,0.10597 -0.05464,0.74717 0,0.80181 0.063,0.063 0.227428,-0.0797 0.267269,0 0.0568,0.11359 0,1.11238 0,1.33635 0,0.0891 -0.063,0.20427 0,0.26727 0.063,0.063 0.178178,0 0.267269,0 0.08909,0 0.187587,0.0398 0.267269,0 0.112691,-0.0564 0.15458,-0.21093 0.267271,-0.26727 0.07968,-0.0399 0.227428,0.0797 0.267269,0 0.239054,-0.21084 -0.119526,-0.56276 0,-0.80181 0.05635,-0.11269 0.227428,-0.14774 0.267269,-0.26727 0.05635,-0.16904 0,-0.35636 0,-0.53454 0,-0.17818 0.05635,-0.3655 0,-0.53454 -0.03984,-0.11953 -0.220477,-0.15029 -0.267269,-0.26727 -0.136422,-0.34105 -0.20688,-0.70675 -0.267269,-1.06908 -0.05859,-0.35151 0.112691,-0.731 0,-1.06908 -0.03984,-0.11952 -0.227428,-0.14774 -0.267271,-0.26726 -0.05634,-0.16904 0,-0.35636 0,-0.53454 0,-0.17818 0,-0.35636 0,-0.53454 0,-0.0891 0,-0.17818 0,-0.26727 0,-0.0891 -0.03984,-0.18759 0,-0.26727 0.05635,-0.11269 0.178181,-0.17818 0.267271,-0.26727 0.305798,-0.3058 0.316386,-0.37273 0.801809,-0.53454 0.14845,-0.0495 1.779014,0 1.870885,0 0.178181,0 0.365503,0.0564 0.53454,0 0.188987,-0.063 0.345551,-0.20427 0.534538,-0.26727 0.17317,-0.0577 1.117534,0 1.33635,0 0.801806,0 1.603615,0 2.405425,0 2.138156,0 4.276312,0 6.414469,0 0.0891,0 0.17818,0 0.26727,0 0.0891,0 0.18758,-0.0398 0.26727,0 0.225385,0.11269 0.309155,0.42185 0.534545,0.53454 0.53901,0.26951 0.86928,0.18424 1.33634,0.53454 0.20159,0.15119 0.33296,0.38335 0.53454,0.53454 0.31874,0.23905 0.73758,0.31353 1.06908,0.53454 0.20967,0.13977 0.30916,0.42184 0.53454,0.53454 0.0797,0.0398 0.18759,-0.0399 0.26727,0 0.11269,0.0563 0.14774,0.22742 0.26727,0.26726 0.16903,0.0564 0.3655,-0.0563 0.53454,0 0.11953,0.0399 0.15458,0.21093 0.26727,0.26728 0.0797,0.0398 0.18275,-0.0282 0.26727,0 0.18898,0.063 0.34555,0.20427 0.53454,0.26726 0.15079,0.0503 0.62618,0 0.80181,0 0.44544,0 0.89089,0 1.33634,0 0.17818,0 0.35636,0 0.53454,0 0.0891,0 0.18759,0.0399 0.26727,0 0.11269,-0.0563 0.14774,-0.22742 0.26727,-0.26726 0.001,-5.3e-4 0.80156,2.5e-4 0.80181,0 0.063,-0.063 -0.0398,-0.18759 0,-0.26728 0.0563,-0.11268 0.19738,-0.16243 0.26727,-0.26726 0.1105,-0.16576 0.14774,-0.37518 0.26727,-0.53454 0.15119,-0.20159 0.39476,-0.32488 0.53454,-0.53454 0.0494,-0.0741 -0.063,-0.20428 0,-0.26727 0.22713,-0.22714 0.57467,-0.3074 0.80181,-0.53454 0.14086,-0.14086 0.14774,-0.37517 0.26727,-0.53454 0.15119,-0.20159 0.37712,-0.33777 0.53454,-0.53454 0.20066,-0.25083 0.3418,-0.54483 0.53453,-0.80181 0.0756,-0.10079 0.17818,-0.17818 0.26727,-0.26727 0.0891,-0.17818 0.15677,-0.36878 0.26727,-0.53454 0.0699,-0.10483 0.22743,-0.14774 0.26727,-0.26727 0.0563,-0.16903 -0.0797,-0.37517 0,-0.53453 0.0398,-0.0797 0.20428,0.063 0.26727,0 0.063,-0.063 -0.0398,-0.18759 0,-0.26727 0.0563,-0.11269 0.22743,-0.14775 0.26727,-0.26728 0.11068,-0.33204 -0.11032,-1.53991 0,-1.87088 0.0282,-0.0845 0.22743,0.0797 0.26727,0 0.0797,-0.15937 -0.0563,-0.3655 0,-0.53454 0.0398,-0.11953 0.22743,-0.14774 0.26727,-0.26727 0.0563,-0.16904 -0.0563,-0.3655 0,-0.53454 0.0797,-0.23905 0.45486,-0.29548 0.53454,-0.53454 0.0563,-0.16903 0,-0.35636 0,-0.53454 0,-0.0891 -0.0398,-0.18758 0,-0.26727 0.0563,-0.11269 0.21092,-0.15457 0.26727,-0.26726 0.0407,-0.0813 0,-0.68145 0,-0.80181 0,-0.62363 0,-1.24726 0,-1.87089 0,-0.80181 0,-1.60362 0,-2.40543 0,-0.1372 0.0441,-1.00294 0,-1.06907 -0.13978,-0.20967 -0.44095,-0.30058 -0.53454,-0.53454 -0.0993,-0.24816 0.11953,-0.56276 0,-0.80181 -0.0891,-0.17818 -0.39368,-0.12641 -0.53454,-0.26727 -0.063,-0.063 0.0494,-0.19314 0,-0.26727 -0.13977,-0.20967 -0.35636,-0.35636 -0.53454,-0.53454 -0.17818,-0.17818 -0.32487,-0.39476 -0.53454,-0.53454 -0.0741,-0.0494 -0.20427,0.063 -0.26727,0 -0.063,-0.063 0.0399,-0.18758 0,-0.26727 -0.0563,-0.11269 -0.17818,-0.17818 -0.26727,-0.26727 -0.0891,-0.0891 -0.14774,-0.22743 -0.26727,-0.26727 -0.16903,-0.0563 -0.37517,0.0797 -0.53454,0 -1.54289,-0.77145 0.60918,-0.4127 -1.33634,-0.80181 -0.17472,-0.0349 -0.35982,0.035 -0.53454,0 -0.27626,-0.0552 -0.52555,-0.21201 -0.80181,-0.26727 -0.17472,-0.0349 -0.35636,0 -0.53454,0 -0.35636,0 -0.71272,0 -1.06908,0 -0.17818,0 -0.36168,0.0432 -0.53454,0 -0.19326,-0.0483 -0.33919,-0.2282 -0.53455,-0.26727 -0.43679,-0.0874 -0.90419,0.10804 -1.33634,0 -0.19326,-0.0483 -0.34127,-0.21895 -0.53454,-0.26726 -0.17286,-0.0432 -0.3655,0.0563 -0.53454,0 -0.11953,-0.0399 -0.15458,-0.21093 -0.26727,-0.26727 -0.15769,-0.0789 -0.61797,0.0613 -0.80181,0 -0.18899,-0.063 -0.34555,-0.20428 -0.53454,-0.26727 -0.25355,-0.0845 -0.54825,0.0845 -0.80181,0 -0.11952,-0.0399 -0.15458,-0.21093 -0.26726,-0.26727 -0.0797,-0.0398 -0.18759,0.0398 -0.26728,0 -0.11269,-0.0564 -0.15457,-0.21093 -0.26727,-0.26727 -0.0797,-0.0398 -0.20427,0.063 -0.26726,0 -0.063,-0.063 0.0398,-0.18759 0,-0.26727 -0.10993,-0.21986 -0.93729,-0.87141 -1.06908,-1.06908 -0.0494,-0.0741 0.0398,-0.18759 0,-0.26727 -0.11269,-0.22538 -0.454855,-0.29549 -0.534535,-0.53454 -0.0563,-0.16904 0.0797,-0.37517 0,-0.53454 -0.0398,-0.0797 -0.22743,0.0797 -0.26727,0 -0.0797,-0.15937 0.0797,-0.37517 0,-0.53454 -0.0398,-0.0797 -0.20428,0.063 -0.26727,0 -0.063,-0.063 0,-0.17818 0,-0.26727 0,-0.0891 0,-0.17818 0,-0.26727 0,-0.26915 0.0493,-1.45581 0,-1.60361 -0.0398,-0.11953 -0.21093,-0.15458 -0.26727,-0.26727 -0.0351,-0.0703 0,-0.92932 0,-1.06908 0,-0.091 -0.0482,-0.92443 0,-1.06908 0.063,-0.18899 0.20427,-0.34555 0.26727,-0.53454 0.0559,-0.16775 0,-0.85391 0,-1.06908 0,-0.0891 0,-0.17817 0,-0.26727 0,-0.0891 0.063,-0.20427 0,-0.26726 -0.063,-0.063 -0.17818,0 -0.26727,0 -0.0891,0 -0.17818,0 -0.26727,0 -1.069078,0 -2.138156,0 -3.207235,0 -2.196509,0 1.058699,-0.0524 -2.138156,0.26726 -0.443238,0.0443 -0.890897,0 -1.336347,0 -0.890899,0 -1.781796,0 -2.672696,0 -0.08909,0 -0.204272,-0.063 -0.267269,0 -0.06299,0.063 0.03984,0.18759 0,0.26727 -0.02559,0.0512 -1.017918,1.0435 -1.069078,1.06908 -0.07968,0.0398 -0.187584,-0.0398 -0.267269,0 -0.112691,0.0564 -0.147743,0.22743 -0.267269,0.26727 -0.169037,0.0563 -0.375171,-0.0797 -0.53454,0 -0.07968,0.0398 0.03984,0.18759 0,0.26727 -0.05635,0.11269 -0.154577,0.21093 -0.267269,0.26727 -0.07968,0.0398 -0.187587,-0.0398 -0.267269,0 -0.112691,0.0563 -0.178181,0.17818 -0.267271,0.26727 -0.08909,0.0891 -0.197382,0.16244 -0.267269,0.26727 -0.110503,0.16575 -0.101515,0.42404 -0.267269,0.53454 -0.148254,0.0988 -0.386286,-0.0988 -0.53454,0 -0.165754,0.1105 -0.156766,0.36878 -0.267269,0.53454 -0.139777,0.20966 -0.356359,0.35636 -0.53454,0.53454 -0.08909,0.0891 -0.154578,0.21092 -0.267269,0.26727 -0.36866,0.18433 -0.239065,-0.32368 -0.534538,0.26726 -0.18433,0.36866 0.323678,0.23907 -0.267271,0.53455 -0.07968,0.0398 -0.204272,-0.063 -0.267269,0 -0.063,0.063 0,0.17817 0,0.26726 0,0.0891 0,0.17818 0,0.26727 0,0.0891 -0.03984,0.18759 0,0.26727 0.118446,0.23689 0.639609,0.55851 0.801809,0.80181 0.110503,0.16575 0.156768,0.36879 0.267269,0.53454 0.443211,0.66482 0.06141,0.0307 0.53454,0.26727 0.112689,0.0563 0.147743,0.22743 0.267269,0.26727 0.169037,0.0563 0.386284,-0.0988 0.534538,0 0.4797,0.3198 0.05484,0.48201 0.53454,0.80181 1.937859,0.96893 -0.42259,-0.28173 0.801809,0.53454 0.331507,0.221 0.737571,0.31353 1.069078,0.53454 0.104831,0.0699 0.162439,0.19738 0.267269,0.26727 0.165754,0.1105 0.393676,0.1264 0.53454,0.26727 0.063,0.063 -0.063,0.20427 0,0.26727 0.55299,0.55299 -0.02162,-0.84505 0.534538,0.26726 0.03984,0.0797 -0.06299,0.20428 0,0.26727 0.063,0.063 0.227428,-0.0797 0.267269,0 0.07968,0.15937 -0.05635,0.36551 0,0.53454 0.03984,0.11953 0.210926,0.15458 0.267272,0.26727 0.07968,0.15937 -0.125992,0.40855 0,0.53454 0.06299,0.063 0.204271,-0.063 0.267268,0 0.063,0.063 -0.063,0.20427 0,0.26727 0.063,0.063 0.227428,-0.0797 0.267269,0 0.0568,0.1136 0,1.11238 0,1.33635 0,0.14278 0.03825,1.25985 0,1.33635 -0.05635,0.11269 -0.210923,0.15458 -0.267269,0.26727 -0.03984,0.0797 0.03984,0.18758 0,0.26727 -0.112691,0.22538 -0.421849,0.30915 -0.53454,0.53454 -0.03984,0.0797 0.063,0.20427 0,0.26726 -0.140862,0.14087 -0.393674,0.12641 -0.534538,0.26727 -0.063,0.063 0.04942,0.19315 0,0.26727 -0.139776,0.20967 -0.421849,0.30916 -0.53454,0.53454 -0.07968,0.15937 0.07969,0.37517 0,0.53454 -0.03984,0.0797 -0.187584,-0.0398 -0.267269,0 -0.112691,0.0564 -0.154577,0.21093 -0.267269,0.26727 -0.07968,0.0398 -0.213815,-0.0713 -0.267269,0 -0.239053,0.31874 -0.356359,0.71272 -0.53454,1.06908 z"
       id="path4605"
       inkscape:connector-curvature="0" />
    <path
       style="fill:#e3e4dc;fill-opacity:1;stroke:none;stroke-width:0.26458332px;stroke-linecap:butt;stroke-linejoin:miter;stroke-opacity:1"
       d="m 161.69806,155.88168 c -0.35636,0.44545 -0.63596,0.9651 -1.06908,1.33635 -0.2139,0.18334 -0.56022,0.12232 -0.80181,0.26726 -0.21607,0.12965 -0.35635,0.35636 -0.53453,0.53455 -0.0891,0.0891 -0.19738,0.16243 -0.26727,0.26726 -1.42544,2.13816 0.97999,-0.97998 -0.80181,0.80181 -0.063,0.063 0.0398,0.18759 0,0.26727 -0.0563,0.11269 -0.17818,0.17818 -0.26727,0.26727 -0.0891,0.0891 -0.15458,0.21093 -0.26727,0.26727 -0.0797,0.0398 -0.17818,0 -0.26727,0 -0.17818,0.0891 -0.36879,0.15677 -0.53454,0.26727 -0.10483,0.0699 -0.14774,0.22743 -0.26727,0.26727 -0.16903,0.0563 -0.35636,0 -0.53454,0 -0.0891,0 -0.18758,-0.0398 -0.26727,0 -0.11269,0.0563 -0.15458,0.21093 -0.26727,0.26727 -0.0797,0.0398 -0.20427,-0.063 -0.26727,0 -0.063,0.063 0.063,0.20427 0,0.26727 -0.063,0.063 -0.20427,-0.063 -0.26726,0 -0.063,0.063 0.063,0.20427 0,0.26727 -0.063,0.063 -0.20428,-0.063 -0.26728,0 -0.063,0.063 0.063,0.20427 0,0.26727 -0.12599,0.12599 -0.40854,-0.12599 -0.53453,0 -0.063,0.063 0.063,0.20427 0,0.26727 -0.063,0.063 -0.20428,-0.063 -0.26727,0 -0.063,0.063 0,0.17818 0,0.26727 -0.17818,0.0891 -0.36879,0.15676 -0.53454,0.26727 -0.10483,0.0699 -0.17818,0.17818 -0.26727,0.26727 -0.0891,0.0891 -0.21093,0.15458 -0.26727,0.26727 -0.0797,0.15936 0.12599,0.40854 0,0.53454 -0.063,0.063 -0.20428,-0.063 -0.26727,0 -0.12599,0.12599 0.12599,0.40854 0,0.53454 -0.063,0.063 -0.20427,-0.063 -0.26727,0 -0.0828,0.0828 0.0828,1.25358 0,1.33634 -0.063,0.063 -0.20428,-0.063 -0.26727,0 -0.063,0.063 0,0.17818 0,0.26727 0,0.0891 0,0.17818 0,0.26727 0,0.53454 0,1.06908 0,1.60362 0,0.0891 0,0.17818 0,0.26727 0,0.0891 -0.0398,0.18758 0,0.26727 0.0564,0.11269 0.21092,0.15458 0.26727,0.26727 0.0398,0.0797 -0.063,0.20427 0,0.26727 0.063,0.063 0.20427,-0.063 0.26727,0 0.12599,0.12599 -0.0797,0.37517 0,0.53453 0.0563,0.1127 0.21092,0.15458 0.26727,0.26728 0.0407,0.0813 0,0.68144 0,0.8018 0,0.10566 0.0571,1.22221 0,1.33635 -0.0564,0.11269 -0.15458,0.21093 -0.26727,0.26727 -0.0797,0.0398 -0.22743,-0.0797 -0.26727,0 -0.0797,0.15937 0.0563,0.3655 0,0.53454 -0.0797,0.23905 -0.42185,0.30916 -0.53454,0.53454 -0.0398,0.0797 0,0.17818 0,0.26727 0,0.17818 0.0432,0.36168 0,0.53454 -0.0483,0.19326 -0.20427,0.34555 -0.26727,0.53454 -0.0282,0.0845 0.0398,0.18758 0,0.26727 -0.0564,0.11269 -0.22743,0.14774 -0.26727,0.26727 -0.0564,0.16903 0,0.35636 0,0.53453 0,0.6268 0.063,-0.12599 -0.26727,0.53454 -0.0398,0.0797 0,0.17818 0,0.26727 0,0.17818 0,0.35636 0,0.53454 0,0.44545 0,0.8909 0,1.33635 0,0.0891 0,0.17818 0,0.26727 0,0.0891 -0.063,0.20427 0,0.26727 0.063,0.063 0.17818,0 0.26727,0 0.0891,0 0.17818,0 0.26727,0 0.71272,0 -0.0891,-0.0891 0.26727,0.26727 0.063,0.063 0.17818,0 0.26727,0 0.44545,0 0.8909,0 1.33635,0 0.0891,0 0.20427,0.063 0.26727,0 0.14086,-0.14086 0.14774,-0.37517 0.26727,-0.53454 0.10922,-0.14564 1.18917,-1.23823 1.33634,-1.33635 0.0741,-0.0494 0.18759,0.0398 0.26727,0 0.11269,-0.0563 0.15458,-0.21092 0.26727,-0.26727 0.0797,-0.0398 0.20428,0.063 0.26727,0 0.063,-0.063 -0.0398,-0.18758 0,-0.26727 0.0564,-0.11269 0.21093,-0.15458 0.26727,-0.26727 0.10691,-0.21381 -0.10691,-0.58799 0,-0.80181 0.11269,-0.22538 0.42185,-0.30915 0.53454,-0.53453 0.0345,-0.0691 0,-1.41418 0,-1.60362 0,-0.21516 -0.0559,-0.90133 0,-1.06908 0.063,-0.18899 0.21896,-0.34128 0.26727,-0.53454 0.0432,-0.17286 -0.0563,-0.3655 0,-0.53454 0.0398,-0.11952 0.21092,-0.15458 0.26727,-0.26727 0.0797,-0.15937 -0.0797,-0.37517 0,-0.53454 0.0564,-0.11269 0.21092,-0.15457 0.26727,-0.26727 0.0398,-0.0797 -0.0398,-0.18758 0,-0.26726 0.11269,-0.22539 0.39476,-0.32488 0.53454,-0.53455 0.1105,-0.16575 0.15676,-0.36878 0.26727,-0.53453 0.13977,-0.20967 0.45485,-0.29549 0.53454,-0.53454 0.0563,-0.16904 -0.126,-0.40855 0,-0.53454 0.12599,-0.12599 0.40854,0.12599 0.53454,0 0.12599,-0.12599 -0.0797,-0.37517 0,-0.53454 0.0398,-0.0797 0.20427,0.063 0.26726,0 0.063,-0.063 -0.0282,-0.18275 0,-0.26727 0.063,-0.18899 0.20428,-0.34555 0.26727,-0.53454 0.0282,-0.0845 -0.0398,-0.18758 0,-0.26727 0.6116,-1.22319 -0.11077,1.13414 0.53454,-0.80181 0.0282,-0.0845 -0.063,-0.20427 0,-0.26727 0.063,-0.063 0.20428,0.063 0.26727,0 0.063,-0.063 -0.0398,-0.18758 0,-0.26727 0.0563,-0.11269 0.21093,-0.15457 0.26727,-0.26727 0.0399,-0.0797 0,-0.17818 0,-0.26726 0.0891,-0.0891 0.21093,-0.15458 0.26727,-0.26728 0.053,-0.10596 -0.0546,-0.74716 0,-0.8018 0.063,-0.063 0.20427,0.063 0.26727,0 0.12599,-0.12599 -0.12599,-0.40855 0,-0.53454 0.063,-0.063 0.20428,0.063 0.26727,0 0.0828,-0.0828 -0.0828,-1.25359 0,-1.33635 0.063,-0.063 0.20428,0.063 0.26727,0 0.12599,-0.12599 -0.12599,-0.40855 0,-0.53454 0.063,-0.063 0.20427,0.063 0.26727,0 0.12599,-0.12599 -0.12599,-0.40855 0,-0.53454 0.063,-0.063 0.20427,0.063 0.26727,0 0.063,-0.063 0,-0.17818 0,-0.26727 0,-0.44545 0,-0.8909 0,-1.33635 0,-0.0891 -0.063,-0.20427 0,-0.26726 0.063,-0.063 0.20427,0.063 0.26727,0 0.0108,-0.0108 0,-0.97093 0,-1.06908 0,-0.0648 0.009,-0.79322 0,-0.80181 -0.063,-0.063 -0.17818,0 -0.26727,0"
       id="path4607"
       inkscape:connector-curvature="0" />
    <path
       style="fill:none;fill-opacity:1;stroke:none;stroke-width:0.26458332px;stroke-linecap:butt;stroke-linejoin:miter;stroke-opacity:1"
       d="m 60.937451,157.75257 c -0.534537,0 -1.069078,0 -1.603615,0 -0.44545,0 -0.8909,0 -1.33635,0 -0.08909,0 -0.204271,-0.063 -0.267269,0 -0.063,0.063 0.063,0.20427 0,0.26727 -0.063,0.063 -0.204274,-0.063 -0.267269,0 -0.063,0.063 0,0.17817 0,0.26726 0,0.12037 -0.04067,0.72048 0,0.80181 0.556155,1.11231 -0.01844,-0.28572 0.534538,0.26727 0.063,0.063 -0.063,0.20428 0,0.26727 0.063,0.063 0.187587,-0.0398 0.267269,0 0.225383,0.11269 0.309158,0.42185 0.53454,0.53454 0.105971,0.053 0.74717,-0.0546 0.80181,0 0.06299,0.063 -0.063,0.20428 0,0.26727 0.06299,0.063 0.204271,-0.063 0.267268,0 0.55299,0.55299 -0.845042,-0.0216 0.267269,0.53454 0.07969,0.0398 0.178181,0 0.267272,0 0.08909,0 0.178178,0 0.267269,0 0.08909,0 0.178178,0 0.267268,0 0.08909,0 0.204275,0.063 0.267269,0 0.063,-0.063 -0.06299,-0.20427 0,-0.26727 0.063,-0.063 0.204274,0.063 0.267272,0 0.06299,-0.063 -0.03984,-0.18759 0,-0.26727 0.05634,-0.11269 0.210923,-0.15458 0.267269,-0.26727 0.04067,-0.0813 0,-0.68144 0,-0.80181"
       id="path4615"
       inkscape:connector-curvature="0" />
    <path
       style="fill:#e3e4dc;fill-opacity:1;stroke:none;stroke-width:0.26458332px;stroke-linecap:butt;stroke-linejoin:miter;stroke-opacity:1"
       d="m 69.490076,152.67445 c -0.44545,0 -0.890897,0 -1.336347,0 -0.08909,0 -0.182753,-0.0282 -0.267269,0 -0.188989,0.063 -0.345551,0.20427 -0.53454,0.26726 -0.08452,0.0282 -0.187585,-0.0398 -0.267269,0 -0.112691,0.0564 -0.15458,0.21093 -0.267269,0.26727 -0.07968,0.0399 -0.178181,0 -0.267271,0 -0.08909,0 -0.178179,0 -0.267269,0 -0.09903,0 -2.071159,-0.0335 -2.138156,0 -0.112692,0.0564 -0.154578,0.21093 -0.267269,0.26727 -0.07968,0.0399 -0.187585,-0.0398 -0.267269,0 -0.112691,0.0564 -0.15458,0.21093 -0.267272,0.26727 -0.07968,0.0398 -0.204271,-0.063 -0.267268,0 -0.063,0.063 0.063,0.20428 0,0.26727 -0.125992,0.12599 -0.375172,-0.0797 -0.534538,0 -0.112691,0.0564 -0.15458,0.21093 -0.267272,0.26727 -0.07968,0.0398 -0.187584,-0.0398 -0.267269,0 -0.22538,0.11269 -0.309157,0.42185 -0.534537,0.53454 -0.07968,0.0398 -0.193143,-0.0494 -0.267272,0 -0.209663,0.13978 -0.356359,0.35636 -0.534537,0.53454 -0.08909,0.0891 -0.154581,0.21092 -0.267269,0.26727 -0.07969,0.0398 -0.204274,-0.063 -0.267272,0 -0.06299,0.063 0.063,0.20427 0,0.26727 -0.125992,0.12599 -0.408546,-0.12599 -0.534537,0 -0.0086,0.009 0,0.73699 0,0.80181 0,0.0891 0,0.17818 0,0.26727 0,0.0891 -0.063,0.20427 0,0.26727 0.06299,0.063 0.204271,-0.063 0.267268,0 0.063,0.063 -0.063,0.20427 0,0.26726 0.063,0.063 0.187585,-0.0398 0.267269,0 0.112692,0.0564 0.178181,0.17819 0.267272,0.26728 0.08909,0.0891 0.210923,0.15457 0.267269,0.26727 0.03984,0.0797 -0.03984,0.18758 0,0.26726 0.05635,0.1127 0.210923,0.15458 0.267268,0.26727 0.03984,0.0797 -0.03984,0.18759 0,0.26727 0.153202,0.30641 0.557663,0.37178 0.80181,0.53454 0.614016,0.40935 -0.114607,0.15267 0.534537,0.80181 0.140865,0.14087 0.393677,0.12641 0.534541,0.26727 0.06299,0.063 -0.03984,0.18759 0,0.26727 0.05635,0.11269 0.178178,0.17818 0.267269,0.26727 0.08909,0.0891 0.210923,0.15458 0.267268,0.26727 0.106908,0.21381 -0.106907,0.58799 0,0.80181 0.556157,1.11231 -0.01844,-0.28572 0.534541,0.26727 0.125992,0.12599 -0.07968,0.37517 0,0.53454 0.05635,0.11269 0.210923,0.15458 0.267269,0.26727 0.04067,0.0813 0,0.68144 0,0.80181 0,0.0891 0,0.35636 0,0.26726 0,-0.27652 -0.05092,-1.66722 0,-1.87088 0.173394,-0.69358 0.928803,-0.90225 1.069078,-1.60362 0.05242,-0.26208 -0.119526,-0.56275 0,-0.80181 0.08909,-0.17818 0.393676,-0.1264 0.53454,-0.26727 0.125992,-0.12599 -0.07968,-0.37517 0,-0.53454 0.112689,-0.22538 0.421846,-0.30915 0.534538,-0.53454 0.05298,-0.10597 -0.05464,-0.74716 0,-0.8018 0.063,-0.063 0.204274,0.063 0.267269,0 0.133635,-0.13364 -0.133634,-0.66818 0,-0.80181 0.063,-0.063 0.204274,0.063 0.267271,0 0.0086,-0.009 0,-0.73699 0,-0.80181 0,-0.0891 0,-0.35636 0,-0.26727 0,0.17818 0,0.71272 0,0.53454 0,-0.26727 0,-0.53454 0,-0.80181 0,-0.0891 -0.063,-0.20427 0,-0.26727 0.063,-0.063 0.204272,0.063 0.267269,0 0.063,-0.063 -0.03984,-0.18759 0,-0.26727 0.556157,-1.11231 -0.01844,0.28572 0.534538,-0.26727 0.063,-0.063 -0.063,-0.20427 0,-0.26727 0.125992,-0.12599 0.408548,0.12599 0.53454,0 0.063,-0.063 -0.03984,-0.18758 0,-0.26727 0.05635,-0.11269 0.210923,-0.15458 0.267269,-0.26727 0.03984,-0.0797 -0.063,-0.20427 0,-0.26727 0.125992,-0.12599 0.427633,0.14255 0.53454,0 0.239051,-0.31874 0.356359,-0.71272 0.534538,-1.06907 z"
       id="path4617"
       inkscape:connector-curvature="0" />
    <path
       style="fill:#e3e4dc;fill-opacity:1;stroke:none;stroke-width:0.26458332px;stroke-linecap:butt;stroke-linejoin:miter;stroke-opacity:1"
       d="m 141.38558,106.16955 c 0.5996,0.94347 0.53454,1.00767 0.53454,1.87088 0,0.0891 -0.063,0.20428 0,0.26727 0.063,0.063 0.17818,0 0.26727,0 0.0891,0 0.17818,0 0.26727,0 0.959,0 1.15474,0 1.60361,0 0.12037,0 0.72047,0.0407 0.80181,0 0.11269,-0.0563 0.17818,-0.17818 0.26727,-0.26727 0.0891,-0.0891 0.21093,-0.15457 0.26727,-0.26727 0.0398,-0.0797 -0.063,-0.20427 0,-0.26726 0.063,-0.063 0.20427,0.063 0.26727,0 0.12599,-0.126 -0.12599,-0.40855 0,-0.53454 0.063,-0.063 0.20427,0.063 0.26727,0 0.13364,-0.13364 -0.13364,-0.66818 0,-0.80181 0.063,-0.063 0.20427,0.063 0.26727,0 0.0267,-0.0267 0.0267,-0.77509 0,-0.80181 -0.063,-0.063 -0.17818,0 -0.26727,0 0,-0.0891 0.063,-0.20427 0,-0.26727 -0.063,-0.063 -0.20427,0.063 -0.26727,0 -0.063,-0.063 0.063,-0.20427 0,-0.26727 -0.12599,-0.12599 -0.37517,0.0797 -0.53454,0 -1.11231,-0.55616 0.28572,0.0184 -0.26727,-0.53454 -0.0643,-0.0643 -1.00476,0.0643 -1.06908,0 -0.063,-0.063 0.063,-0.20427 0,-0.26727 -0.063,-0.063 -0.17818,0 -0.26726,0 -0.0891,0 -0.17819,0 -0.26728,0 -0.8018,0 -1.60361,0 -2.40542,0 -0.0982,0 -1.05832,0.0107 -1.06908,0 -0.063,-0.063 0.063,-0.20427 0,-0.26727 -0.063,-0.063 -0.20427,-0.063 -0.26727,0 -0.063,0.063 0.0891,0.26727 0,0.26727 -0.0891,0 0,-0.35636 0,-0.26727 0,0.17818 0,0.35636 0,0.53454 0,0.0891 -0.063,0.20428 0,0.26727 0.063,0.063 0.20428,-0.063 0.26727,0 0.063,0.063 -0.063,0.20427 0,0.26727 0.063,0.063 0.20428,-0.063 0.26727,0 0.063,0.063 -0.063,0.20427 0,0.26727 0.12599,0.12599 0.40855,-0.12599 0.53454,0 0.31498,0.31498 0.53454,0.71272 0.80181,1.06908 z"
       id="path4619"
       inkscape:connector-curvature="0" />
  </g>
</svg>
